<svg width="172" height="175" viewBox="0 0 172 175" fill="none" xmlns="http://www.w3.org/2000/svg">
<circle cx="86" cy="86" r="78.5" stroke="#06EBE5" stroke-width="3"/>
<circle cx="86" cy="86" r="83.5" stroke="#06EBE5" stroke-width="5" stroke-dasharray="10 20 30 40"/>
<circle cx="86.5" cy="85.5" r="72" stroke="#06EBE5" stroke-dasharray="5 2"/>
<mask id="path-4-inside-1_141_1806" fill="white">
<path d="M154 85.5C154 101.368 148.41 116.728 138.211 128.884C128.013 141.04 113.857 149.215 98.2313 151.973C82.6051 154.73 66.5068 151.895 52.7632 143.964C39.0196 136.034 28.5093 123.515 23.0777 108.605C17.6461 93.6964 17.6406 77.3503 23.0621 62.4375C28.4835 47.5248 38.9853 34.9986 52.7236 27.0586C66.4618 19.1185 82.5581 16.2722 98.1862 19.0193C113.814 21.7665 127.975 29.9315 138.182 42.0807L136.281 43.6776C126.45 31.9752 112.81 24.1105 97.7564 21.4644C82.7031 18.8183 67.1988 21.5599 53.9658 29.2079C40.7329 36.856 30.6173 48.9214 25.3952 63.2857C20.1732 77.6501 20.1785 93.3949 25.4103 107.756C30.6421 122.116 40.7659 134.175 54.004 141.814C67.2421 149.453 82.7483 152.184 97.7998 149.528C112.851 146.872 126.486 138.998 136.309 127.289C146.133 115.58 151.517 100.784 151.517 85.5H154Z"/>
</mask>
<path d="M154 85.5C154 101.368 148.41 116.728 138.211 128.884C128.013 141.04 113.857 149.215 98.2313 151.973C82.6051 154.73 66.5068 151.895 52.7632 143.964C39.0196 136.034 28.5093 123.515 23.0777 108.605C17.6461 93.6964 17.6406 77.3503 23.0621 62.4375C28.4835 47.5248 38.9853 34.9986 52.7236 27.0586C66.4618 19.1185 82.5581 16.2722 98.1862 19.0193C113.814 21.7665 127.975 29.9315 138.182 42.0807L136.281 43.6776C126.45 31.9752 112.81 24.1105 97.7564 21.4644C82.7031 18.8183 67.1988 21.5599 53.9658 29.2079C40.7329 36.856 30.6173 48.9214 25.3952 63.2857C20.1732 77.6501 20.1785 93.3949 25.4103 107.756C30.6421 122.116 40.7659 134.175 54.004 141.814C67.2421 149.453 82.7483 152.184 97.7998 149.528C112.851 146.872 126.486 138.998 136.309 127.289C146.133 115.58 151.517 100.784 151.517 85.5H154Z" stroke="#06EBE5" stroke-width="6" stroke-linejoin="round" mask="url(#path-4-inside-1_141_1806)"/>
<mask id="path-5-inside-2_141_1806" fill="white">
<path d="M80.5649 168.865C62.3058 168.463 44.8209 161.412 31.3908 149.035L32.005 148.368C45.2728 160.596 62.5464 167.561 80.5849 167.959L80.5649 168.865Z"/>
</mask>
<path d="M80.5649 168.865C62.3058 168.463 44.8209 161.412 31.3908 149.035L32.005 148.368C45.2728 160.596 62.5464 167.561 80.5849 167.959L80.5649 168.865Z" fill="black"/>
<path d="M80.5649 168.865L80.5429 169.865L81.5426 169.887L81.5647 168.887L80.5649 168.865ZM31.3908 149.035L30.6554 148.357L29.9777 149.092L30.7131 149.77L31.3908 149.035ZM32.005 148.368L32.6827 147.633L31.9473 146.955L31.2696 147.691L32.005 148.368ZM80.5849 167.959L81.5846 167.981L81.6066 166.981L80.6069 166.959L80.5849 167.959ZM80.5869 167.865C62.5713 167.468 45.3195 160.511 32.0684 148.299L30.7131 149.77C44.3223 162.312 62.0403 169.457 80.5429 169.865L80.5869 167.865ZM32.1261 149.712L32.7403 149.046L31.2696 147.691L30.6554 148.357L32.1261 149.712ZM31.3273 149.104C44.7742 161.496 62.2809 168.556 80.5628 168.959L80.6069 166.959C62.8119 166.567 45.7715 159.695 32.6827 147.633L31.3273 149.104ZM79.5851 167.937L79.5651 168.843L81.5647 168.887L81.5846 167.981L79.5851 167.937Z" fill="#06EBE5" mask="url(#path-5-inside-2_141_1806)"/>
<line x1="74.6806" y1="174.053" x2="75.0443" y2="168.064" stroke="#06EBE5"/>
<line x1="68.6977" y1="172.953" x2="69.649" y2="167.029" stroke="#06EBE5"/>
<line x1="62.706" y1="171.899" x2="63.6937" y2="165.981" stroke="#06EBE5"/>
<line x1="56.7281" y1="169.817" x2="58.0981" y2="163.975" stroke="#06EBE5"/>
<line x1="50.7445" y1="167.705" x2="52.7813" y2="162.061" stroke="#06EBE5"/>
<line x1="44.8014" y1="165.609" x2="47.4514" y2="160.226" stroke="#06EBE5"/>
<line x1="39.8417" y1="162.535" x2="42.8691" y2="157.355" stroke="#06EBE5"/>
<line x1="35.8691" y1="159.502" x2="38.8964" y2="154.321" stroke="#06EBE5"/>
<line x1="31.9343" y1="156.412" x2="35.6314" y2="151.687" stroke="#06EBE5"/>
</svg>
